<?xml version="1.0" standalone="no"?>
<!DOCTYPE svg PUBLIC "-//W3C//DTD SVG 1.1//EN" "http://www.w3.org/Graphics/SVG/1.1/DTD/svg11.dtd">
<svg xmlns="http://www.w3.org/2000/svg" width="400" height="390" viewBox="0 0 400 390" fill="none">
<path fill-rule="evenodd" clip-rule="evenodd" d="M395.461 0.0120243C360.766 0.0120243 138.679 -1.70255 86.4346 35.8163C41.8457 67.8156 12.665 116.999 5.95058 171.469C3.35241 182.247 1.56559 193.203 0.605143 204.248C0.605143 207.879 0.605143 211.51 0 215.14V318.721C92.438 171.221 231.688 58.9973 395.461 0.0120243Z" fill="#6E6A79"/>
<path fill-rule="evenodd" clip-rule="evenodd" d="M17.8521 389.724H125.265C125.265 389.724 256.379 394.666 313.364 353.92C358.138 321.925 387.415 272.594 394.049 217.964C396.639 207.185 398.426 196.229 399.395 185.186C399.395 181.555 399.395 177.924 400 174.192V167.637V2.12988C161.271 132.034 60.4138 292.498 17.8521 389.724Z" fill="#8CC541"/>
</svg>